<svg width="1391" height="76" viewBox="0 0 1391 76" fill="none" xmlns="http://www.w3.org/2000/svg">
<path d="M-9.5 0H1390.5V76H-9.5V0Z" fill="#0A61F7"/>
<path d="M224.651 43.9525C222.938 43.9525 221.386 43.5834 219.993 42.8453C218.617 42.0912 217.529 41.0562 216.728 39.7404C215.944 38.4086 215.552 36.9084 215.552 35.2396C215.552 33.5708 215.944 32.0786 216.728 30.7628C217.529 29.431 218.617 28.3961 219.993 27.658C221.386 26.9038 222.946 26.5267 224.675 26.5267C226.132 26.5267 227.444 26.7835 228.612 27.2969C229.797 27.8104 230.789 28.5485 231.59 29.5113L229.093 31.8218C227.956 30.5061 226.548 29.8482 224.867 29.8482C223.827 29.8482 222.898 30.0809 222.082 30.5462C221.266 30.9955 220.626 31.6293 220.161 32.4476C219.713 33.266 219.489 34.1966 219.489 35.2396C219.489 36.2826 219.713 37.2132 220.161 38.0316C220.626 38.8499 221.266 39.4917 222.082 39.9571C222.898 40.4063 223.827 40.631 224.867 40.631C226.548 40.631 227.956 39.9651 229.093 38.6333L231.59 40.9439C230.789 41.9227 229.797 42.6688 228.612 43.1823C227.428 43.6957 226.108 43.9525 224.651 43.9525Z" fill="white"/>
<path d="M241.542 43.9525C239.141 43.9525 237.268 43.2866 235.924 41.9548C234.596 40.623 233.931 38.7215 233.931 36.2505V26.8156H237.821V36.1061C237.821 39.1227 239.069 40.631 241.566 40.631C242.782 40.631 243.711 40.27 244.351 39.5479C244.991 38.8098 245.311 37.6625 245.311 36.1061V26.8156H249.153V36.2505C249.153 38.7215 248.48 40.623 247.136 41.9548C245.808 43.2866 243.943 43.9525 241.542 43.9525Z" fill="white"/>
<path d="M265.336 34.9026C266.297 35.2075 267.049 35.721 267.593 36.443C268.137 37.149 268.41 38.0235 268.41 39.0665C268.41 40.5427 267.833 41.682 266.681 42.4843C265.545 43.2705 263.88 43.6636 261.687 43.6636H252.996V26.8156H261.207C263.256 26.8156 264.824 27.2087 265.913 27.9949C267.017 28.7812 267.569 29.8482 267.569 31.1961C267.569 32.0144 267.369 32.7445 266.969 33.3863C266.585 34.0281 266.041 34.5336 265.336 34.9026ZM256.861 29.7519V33.7233H260.727C261.687 33.7233 262.415 33.5548 262.912 33.2178C263.408 32.8809 263.656 32.3834 263.656 31.7256C263.656 31.0677 263.408 30.5783 262.912 30.2574C262.415 29.9204 261.687 29.7519 260.727 29.7519H256.861ZM261.399 40.7273C262.423 40.7273 263.192 40.5588 263.704 40.2218C264.232 39.8849 264.496 39.3634 264.496 38.6574C264.496 37.2614 263.464 36.5634 261.399 36.5634H256.861V40.7273H261.399Z" fill="white"/>
<path d="M282.422 40.0533H274.619L273.131 43.6636H269.145L276.636 26.8156H280.477L287.992 43.6636H283.911L282.422 40.0533ZM281.198 37.0929L278.533 30.6425L275.868 37.0929H281.198Z" fill="white"/>
<path d="M292.373 29.9926H286.995V26.8156H301.64V29.9926H296.262V43.6636H292.373V29.9926Z" fill="white"/>
<path d="M311.637 43.9525C309.893 43.9525 308.316 43.5754 306.908 42.8212C305.515 42.0671 304.419 41.0321 303.618 39.7164C302.834 38.3846 302.442 36.8923 302.442 35.2396C302.442 33.5869 302.834 32.1026 303.618 30.7869C304.419 29.4551 305.515 28.4121 306.908 27.658C308.316 26.9038 309.893 26.5267 311.637 26.5267C313.382 26.5267 314.95 26.9038 316.343 27.658C317.735 28.4121 318.832 29.4551 319.632 30.7869C320.432 32.1026 320.833 33.5869 320.833 35.2396C320.833 36.8923 320.432 38.3846 319.632 39.7164C318.832 41.0321 317.735 42.0671 316.343 42.8212C314.95 43.5754 313.382 43.9525 311.637 43.9525ZM311.637 40.631C312.63 40.631 313.526 40.4063 314.326 39.9571C315.127 39.4917 315.751 38.8499 316.199 38.0316C316.663 37.2132 316.895 36.2826 316.895 35.2396C316.895 34.1966 316.663 33.266 316.199 32.4476C315.751 31.6293 315.127 30.9955 314.326 30.5462C313.526 30.0809 312.63 29.8482 311.637 29.8482C310.645 29.8482 309.749 30.0809 308.948 30.5462C308.148 30.9955 307.516 31.6293 307.052 32.4476C306.604 33.266 306.379 34.1966 306.379 35.2396C306.379 36.2826 306.604 37.2132 307.052 38.0316C307.516 38.8499 308.148 39.4917 308.948 39.9571C309.749 40.4063 310.645 40.631 311.637 40.631Z" fill="white"/>
<path d="M334.463 43.6636L331.222 38.9702H331.03H327.645V43.6636H323.756V26.8156H331.03C332.519 26.8156 333.807 27.0643 334.896 27.5617C336 28.0591 336.848 28.7651 337.44 29.6797C338.033 30.5943 338.329 31.6774 338.329 32.929C338.329 34.1806 338.025 35.2637 337.416 36.1783C336.824 37.0768 335.976 37.7668 334.872 38.2482L338.641 43.6636H334.463ZM334.391 32.929C334.391 31.9823 334.087 31.2602 333.479 30.7628C332.871 30.2494 331.983 29.9926 330.814 29.9926H327.645V35.8654H330.814C331.983 35.8654 332.871 35.6087 333.479 35.0952C334.087 34.5817 334.391 33.8597 334.391 32.929Z" fill="white"/>
<path d="M130 26.8413H133.883V43.6334H130V26.8413Z" fill="white"/>
<path d="M141.341 30.0078H135.972V26.8413H150.594V30.0078H145.225V43.6334H141.341V30.0078Z" fill="white"/>
<path d="M174.988 26.8413H178.876V43.6334H174.988V26.8413Z" fill="white"/>
<path d="M198.275 26.8413V43.6334H195.082L186.705 33.4382V43.6334H182.864V26.8413H186.081L194.434 37.0365V26.8413H198.275Z" fill="white"/>
<path fill-rule="evenodd" clip-rule="evenodd" d="M176.649 19.7113C178.093 19.7113 179.263 20.8817 179.263 22.3252C179.263 23.7686 178.093 24.939 176.649 24.939C175.206 24.939 174.035 23.7686 174.035 22.3252C174.035 20.8817 175.206 19.7113 176.649 19.7113Z" fill="#FF0808"/>
<path fill-rule="evenodd" clip-rule="evenodd" d="M155.99 32.3861C157.477 32.3861 158.683 33.5562 158.683 35C158.683 36.4438 157.477 37.6138 155.99 37.6138C154.502 37.6138 153.297 36.4438 153.297 35C153.297 33.5562 154.502 32.3861 155.99 32.3861Z" fill="white"/>
<path fill-rule="evenodd" clip-rule="evenodd" d="M186.637 57C198.788 57 208.637 47.1503 208.637 35C208.637 22.8497 198.788 13 186.637 13C174.487 13 164.637 22.8497 164.637 35C164.637 47.1503 174.487 57 186.637 57ZM186.637 59C199.892 59 210.637 48.2548 210.637 35C210.637 21.7452 199.892 11 186.637 11C173.382 11 162.637 21.7452 162.637 35C162.637 48.2548 173.382 59 186.637 59Z" fill="white"/>
<path d="M1150.43 39.12C1149.68 39.12 1149.05 38.992 1148.53 38.736C1148.02 38.472 1147.63 38.1 1147.35 37.62C1147.08 37.132 1146.93 36.548 1146.9 35.868C1146.89 35.54 1146.89 35.188 1146.89 34.812C1146.89 34.436 1146.89 34.076 1146.9 33.732C1146.93 33.06 1147.08 32.48 1147.35 31.992C1147.63 31.504 1148.03 31.132 1148.54 30.876C1149.06 30.612 1149.69 30.48 1150.43 30.48C1150.97 30.48 1151.46 30.552 1151.89 30.696C1152.32 30.84 1152.69 31.04 1152.99 31.296C1153.3 31.544 1153.53 31.836 1153.7 32.172C1153.87 32.508 1153.96 32.872 1153.97 33.264C1153.97 33.336 1153.95 33.396 1153.89 33.444C1153.85 33.492 1153.79 33.516 1153.71 33.516H1152.57C1152.49 33.516 1152.41 33.496 1152.36 33.456C1152.3 33.408 1152.26 33.332 1152.24 33.228C1152.11 32.7 1151.89 32.34 1151.58 32.148C1151.27 31.956 1150.88 31.86 1150.41 31.86C1149.88 31.86 1149.45 32.012 1149.13 32.316C1148.81 32.612 1148.64 33.104 1148.61 33.792C1148.59 34.448 1148.59 35.12 1148.61 35.808C1148.64 36.496 1148.81 36.992 1149.13 37.296C1149.45 37.592 1149.88 37.74 1150.41 37.74C1150.88 37.74 1151.27 37.644 1151.58 37.452C1151.89 37.252 1152.11 36.892 1152.24 36.372C1152.26 36.26 1152.3 36.184 1152.36 36.144C1152.41 36.104 1152.49 36.084 1152.57 36.084H1153.71C1153.79 36.084 1153.85 36.108 1153.89 36.156C1153.95 36.204 1153.97 36.264 1153.97 36.336C1153.96 36.728 1153.87 37.092 1153.7 37.428C1153.53 37.764 1153.3 38.06 1152.99 38.316C1152.69 38.564 1152.32 38.76 1151.89 38.904C1151.46 39.048 1150.97 39.12 1150.43 39.12ZM1157.08 39C1157 39 1156.93 38.972 1156.87 38.916C1156.82 38.86 1156.79 38.792 1156.79 38.712V30.9C1156.79 30.812 1156.82 30.74 1156.87 30.684C1156.93 30.628 1157 30.6 1157.08 30.6H1160.18C1161.15 30.6 1161.92 30.824 1162.48 31.272C1163.04 31.72 1163.32 32.372 1163.32 33.228C1163.32 33.82 1163.17 34.312 1162.87 34.704C1162.58 35.096 1162.2 35.38 1161.71 35.556L1163.46 38.616C1163.48 38.664 1163.5 38.708 1163.5 38.748C1163.5 38.82 1163.47 38.88 1163.41 38.928C1163.36 38.976 1163.31 39 1163.24 39H1162.15C1162.02 39 1161.91 38.964 1161.84 38.892C1161.77 38.82 1161.71 38.748 1161.67 38.676L1160.12 35.832H1158.46V38.712C1158.46 38.792 1158.43 38.86 1158.37 38.916C1158.32 38.972 1158.26 39 1158.17 39H1157.08ZM1158.46 34.476H1160.15C1160.64 34.476 1161 34.368 1161.24 34.152C1161.48 33.928 1161.6 33.616 1161.6 33.216C1161.6 32.816 1161.48 32.504 1161.24 32.28C1161.01 32.048 1160.64 31.932 1160.15 31.932H1158.46V34.476ZM1166.55 39C1166.47 39 1166.4 38.972 1166.35 38.916C1166.29 38.86 1166.26 38.792 1166.26 38.712V30.9C1166.26 30.812 1166.29 30.74 1166.35 30.684C1166.4 30.628 1166.47 30.6 1166.55 30.6H1171.83C1171.92 30.6 1171.99 30.628 1172.05 30.684C1172.1 30.74 1172.13 30.812 1172.13 30.9V31.692C1172.13 31.772 1172.1 31.84 1172.05 31.896C1171.99 31.952 1171.92 31.98 1171.83 31.98H1167.88V34.104H1171.57C1171.65 34.104 1171.73 34.132 1171.78 34.188C1171.84 34.236 1171.87 34.304 1171.87 34.392V35.136C1171.87 35.224 1171.84 35.296 1171.78 35.352C1171.73 35.4 1171.65 35.424 1171.57 35.424H1167.88V37.62H1171.93C1172.01 37.62 1172.09 37.648 1172.14 37.704C1172.2 37.76 1172.23 37.832 1172.23 37.92V38.712C1172.23 38.792 1172.2 38.86 1172.14 38.916C1172.09 38.972 1172.01 39 1171.93 39H1166.55ZM1174.61 39C1174.55 39 1174.49 38.976 1174.43 38.928C1174.38 38.88 1174.36 38.82 1174.36 38.748C1174.36 38.716 1174.37 38.68 1174.38 38.64L1177.28 30.9C1177.3 30.82 1177.34 30.752 1177.41 30.696C1177.48 30.632 1177.58 30.6 1177.7 30.6H1179C1179.12 30.6 1179.22 30.632 1179.28 30.696C1179.34 30.752 1179.39 30.82 1179.42 30.9L1182.32 38.64C1182.32 38.68 1182.33 38.716 1182.33 38.748C1182.33 38.82 1182.3 38.88 1182.26 38.928C1182.21 38.976 1182.15 39 1182.09 39H1181.04C1180.93 39 1180.85 38.976 1180.79 38.928C1180.74 38.872 1180.71 38.82 1180.7 38.772L1180.13 37.308H1176.57L1176 38.772C1175.99 38.82 1175.95 38.872 1175.9 38.928C1175.85 38.976 1175.77 39 1175.66 39H1174.61ZM1176.99 35.928H1179.71L1178.34 32.22L1176.99 35.928ZM1186.1 39C1186.02 39 1185.96 38.972 1185.9 38.916C1185.84 38.86 1185.82 38.792 1185.82 38.712V32.076H1183.6C1183.52 32.076 1183.45 32.048 1183.39 31.992C1183.34 31.936 1183.31 31.868 1183.31 31.788V30.9C1183.31 30.812 1183.34 30.74 1183.39 30.684C1183.45 30.628 1183.52 30.6 1183.6 30.6H1189.72C1189.8 30.6 1189.88 30.628 1189.93 30.684C1189.99 30.74 1190.02 30.812 1190.02 30.9V31.788C1190.02 31.868 1189.99 31.936 1189.93 31.992C1189.88 32.048 1189.8 32.076 1189.72 32.076H1187.51V38.712C1187.51 38.792 1187.48 38.86 1187.42 38.916C1187.37 38.972 1187.3 39 1187.21 39H1186.1ZM1192.92 39C1192.84 39 1192.77 38.972 1192.72 38.916C1192.66 38.86 1192.63 38.792 1192.63 38.712V30.9C1192.63 30.812 1192.66 30.74 1192.72 30.684C1192.77 30.628 1192.84 30.6 1192.92 30.6H1198.2C1198.29 30.6 1198.36 30.628 1198.42 30.684C1198.47 30.74 1198.5 30.812 1198.5 30.9V31.692C1198.5 31.772 1198.47 31.84 1198.42 31.896C1198.36 31.952 1198.29 31.98 1198.2 31.98H1194.25V34.104H1197.94C1198.03 34.104 1198.1 34.132 1198.15 34.188C1198.21 34.236 1198.24 34.304 1198.24 34.392V35.136C1198.24 35.224 1198.21 35.296 1198.15 35.352C1198.1 35.4 1198.03 35.424 1197.94 35.424H1194.25V37.62H1198.3C1198.39 37.62 1198.46 37.648 1198.51 37.704C1198.57 37.76 1198.6 37.832 1198.6 37.92V38.712C1198.6 38.792 1198.57 38.86 1198.51 38.916C1198.46 38.972 1198.39 39 1198.3 39H1192.92ZM1204.81 39C1204.75 39 1204.69 38.976 1204.63 38.928C1204.58 38.88 1204.56 38.82 1204.56 38.748C1204.56 38.716 1204.57 38.68 1204.58 38.64L1207.47 30.9C1207.5 30.82 1207.54 30.752 1207.61 30.696C1207.68 30.632 1207.77 30.6 1207.89 30.6H1209.2C1209.32 30.6 1209.41 30.632 1209.48 30.696C1209.54 30.752 1209.59 30.82 1209.62 30.9L1212.51 38.64C1212.52 38.68 1212.53 38.716 1212.53 38.748C1212.53 38.82 1212.5 38.88 1212.45 38.928C1212.41 38.976 1212.35 39 1212.29 39H1211.24C1211.13 39 1211.05 38.976 1210.99 38.928C1210.94 38.872 1210.91 38.82 1210.89 38.772L1210.33 37.308H1206.77L1206.2 38.772C1206.19 38.82 1206.15 38.872 1206.09 38.928C1206.05 38.976 1205.97 39 1205.85 39H1204.81ZM1207.19 35.928H1209.91L1208.54 32.22L1207.19 35.928ZM1218.12 39.12C1217.38 39.12 1216.75 38.992 1216.23 38.736C1215.71 38.472 1215.32 38.1 1215.05 37.62C1214.78 37.132 1214.63 36.548 1214.59 35.868C1214.59 35.54 1214.58 35.188 1214.58 34.812C1214.58 34.436 1214.59 34.076 1214.59 33.732C1214.63 33.06 1214.78 32.48 1215.05 31.992C1215.33 31.504 1215.73 31.132 1216.24 30.876C1216.76 30.612 1217.39 30.48 1218.12 30.48C1218.67 30.48 1219.15 30.552 1219.59 30.696C1220.02 30.84 1220.39 31.04 1220.69 31.296C1220.99 31.544 1221.23 31.836 1221.4 32.172C1221.57 32.508 1221.65 32.872 1221.66 33.264C1221.67 33.336 1221.65 33.396 1221.59 33.444C1221.54 33.492 1221.48 33.516 1221.41 33.516H1220.27C1220.18 33.516 1220.11 33.496 1220.05 33.456C1220 33.408 1219.96 33.332 1219.93 33.228C1219.81 32.7 1219.59 32.34 1219.27 32.148C1218.96 31.956 1218.57 31.86 1218.11 31.86C1217.57 31.86 1217.15 32.012 1216.83 32.316C1216.51 32.612 1216.33 33.104 1216.31 33.792C1216.29 34.448 1216.29 35.12 1216.31 35.808C1216.33 36.496 1216.51 36.992 1216.83 37.296C1217.15 37.592 1217.57 37.74 1218.11 37.74C1218.57 37.74 1218.96 37.644 1219.27 37.452C1219.59 37.252 1219.81 36.892 1219.93 36.372C1219.96 36.26 1220 36.184 1220.05 36.144C1220.11 36.104 1220.18 36.084 1220.27 36.084H1221.41C1221.48 36.084 1221.54 36.108 1221.59 36.156C1221.65 36.204 1221.67 36.264 1221.66 36.336C1221.65 36.728 1221.57 37.092 1221.4 37.428C1221.23 37.764 1220.99 38.06 1220.69 38.316C1220.39 38.564 1220.02 38.76 1219.59 38.904C1219.15 39.048 1218.67 39.12 1218.12 39.12ZM1227.72 39.12C1226.98 39.12 1226.35 38.992 1225.83 38.736C1225.32 38.472 1224.92 38.1 1224.65 37.62C1224.38 37.132 1224.23 36.548 1224.2 35.868C1224.19 35.54 1224.18 35.188 1224.18 34.812C1224.18 34.436 1224.19 34.076 1224.2 33.732C1224.23 33.06 1224.38 32.48 1224.65 31.992C1224.93 31.504 1225.33 31.132 1225.84 30.876C1226.36 30.612 1226.99 30.48 1227.72 30.48C1228.27 30.48 1228.76 30.552 1229.19 30.696C1229.62 30.84 1229.99 31.04 1230.29 31.296C1230.6 31.544 1230.83 31.836 1231 32.172C1231.17 32.508 1231.26 32.872 1231.26 33.264C1231.27 33.336 1231.25 33.396 1231.19 33.444C1231.14 33.492 1231.08 33.516 1231.01 33.516H1229.87C1229.78 33.516 1229.71 33.496 1229.66 33.456C1229.6 33.408 1229.56 33.332 1229.54 33.228C1229.41 32.7 1229.19 32.34 1228.88 32.148C1228.56 31.956 1228.18 31.86 1227.71 31.86C1227.18 31.86 1226.75 32.012 1226.43 32.316C1226.11 32.612 1225.94 33.104 1225.91 33.792C1225.89 34.448 1225.89 35.12 1225.91 35.808C1225.94 36.496 1226.11 36.992 1226.43 37.296C1226.75 37.592 1227.18 37.74 1227.71 37.74C1228.18 37.74 1228.56 37.644 1228.88 37.452C1229.19 37.252 1229.41 36.892 1229.54 36.372C1229.56 36.26 1229.6 36.184 1229.66 36.144C1229.71 36.104 1229.78 36.084 1229.87 36.084H1231.01C1231.08 36.084 1231.14 36.108 1231.19 36.156C1231.25 36.204 1231.27 36.264 1231.26 36.336C1231.26 36.728 1231.17 37.092 1231 37.428C1230.83 37.764 1230.6 38.06 1230.29 38.316C1229.99 38.564 1229.62 38.76 1229.19 38.904C1228.76 39.048 1228.27 39.12 1227.72 39.12ZM1237.32 39.12C1236.6 39.12 1235.99 39.004 1235.48 38.772C1234.97 38.532 1234.57 38.168 1234.28 37.68C1233.99 37.184 1233.84 36.568 1233.81 35.832C1233.8 35.488 1233.8 35.148 1233.8 34.812C1233.8 34.476 1233.8 34.132 1233.81 33.78C1233.84 33.052 1234 32.444 1234.29 31.956C1234.59 31.468 1234.99 31.1 1235.5 30.852C1236.02 30.604 1236.63 30.48 1237.32 30.48C1238 30.48 1238.61 30.604 1239.13 30.852C1239.65 31.1 1240.06 31.468 1240.35 31.956C1240.65 32.444 1240.81 33.052 1240.83 33.78C1240.85 34.132 1240.86 34.476 1240.86 34.812C1240.86 35.148 1240.85 35.488 1240.83 35.832C1240.81 36.568 1240.65 37.184 1240.36 37.68C1240.08 38.168 1239.67 38.532 1239.15 38.772C1238.64 39.004 1238.03 39.12 1237.32 39.12ZM1237.32 37.74C1237.84 37.74 1238.26 37.588 1238.59 37.284C1238.92 36.972 1239.09 36.468 1239.12 35.772C1239.13 35.42 1239.14 35.096 1239.14 34.8C1239.14 34.496 1239.13 34.172 1239.12 33.828C1239.1 33.364 1239.01 32.988 1238.85 32.7C1238.7 32.404 1238.49 32.192 1238.23 32.064C1237.96 31.928 1237.66 31.86 1237.32 31.86C1236.98 31.86 1236.68 31.928 1236.42 32.064C1236.15 32.192 1235.94 32.404 1235.78 32.7C1235.63 32.988 1235.54 33.364 1235.53 33.828C1235.52 34.172 1235.52 34.496 1235.52 34.8C1235.52 35.096 1235.52 35.42 1235.53 35.772C1235.55 36.468 1235.73 36.972 1236.06 37.284C1236.38 37.588 1236.8 37.74 1237.32 37.74ZM1247.18 39.12C1246.48 39.12 1245.88 39.004 1245.37 38.772C1244.86 38.532 1244.46 38.168 1244.18 37.68C1243.9 37.184 1243.76 36.552 1243.76 35.784V30.9C1243.76 30.812 1243.79 30.74 1243.84 30.684C1243.9 30.628 1243.97 30.6 1244.05 30.6H1245.14C1245.23 30.6 1245.3 30.628 1245.34 30.684C1245.4 30.74 1245.43 30.812 1245.43 30.9V35.784C1245.43 36.44 1245.58 36.928 1245.9 37.248C1246.21 37.56 1246.64 37.716 1247.18 37.716C1247.72 37.716 1248.15 37.56 1248.45 37.248C1248.76 36.928 1248.92 36.44 1248.92 35.784V30.9C1248.92 30.812 1248.95 30.74 1249 30.684C1249.06 30.628 1249.13 30.6 1249.22 30.6H1250.3C1250.39 30.6 1250.46 30.628 1250.5 30.684C1250.56 30.74 1250.59 30.812 1250.59 30.9V35.784C1250.59 36.552 1250.45 37.184 1250.17 37.68C1249.9 38.168 1249.5 38.532 1248.99 38.772C1248.49 39.004 1247.88 39.12 1247.18 39.12ZM1254.07 39C1253.99 39 1253.93 38.972 1253.87 38.916C1253.81 38.86 1253.79 38.792 1253.79 38.712V30.9C1253.79 30.812 1253.81 30.74 1253.87 30.684C1253.93 30.628 1253.99 30.6 1254.07 30.6H1255C1255.11 30.6 1255.19 30.628 1255.24 30.684C1255.29 30.732 1255.33 30.768 1255.35 30.792L1258.8 36.168V30.9C1258.8 30.812 1258.83 30.74 1258.87 30.684C1258.93 30.628 1259 30.6 1259.09 30.6H1260.1C1260.19 30.6 1260.26 30.628 1260.31 30.684C1260.37 30.74 1260.4 30.812 1260.4 30.9V38.7C1260.4 38.788 1260.37 38.86 1260.31 38.916C1260.26 38.972 1260.19 39 1260.11 39H1259.17C1259.06 39 1258.98 38.972 1258.93 38.916C1258.89 38.86 1258.85 38.824 1258.83 38.808L1255.38 33.552V38.712C1255.38 38.792 1255.35 38.86 1255.3 38.916C1255.24 38.972 1255.17 39 1255.08 39H1254.07ZM1265.81 39C1265.73 39 1265.66 38.972 1265.6 38.916C1265.55 38.86 1265.52 38.792 1265.52 38.712V32.076H1263.3C1263.22 32.076 1263.15 32.048 1263.09 31.992C1263.04 31.936 1263.01 31.868 1263.01 31.788V30.9C1263.01 30.812 1263.04 30.74 1263.09 30.684C1263.15 30.628 1263.22 30.6 1263.3 30.6H1269.42C1269.51 30.6 1269.58 30.628 1269.63 30.684C1269.69 30.74 1269.72 30.812 1269.72 30.9V31.788C1269.72 31.868 1269.69 31.936 1269.63 31.992C1269.58 32.048 1269.51 32.076 1269.42 32.076H1267.21V38.712C1267.21 38.792 1267.18 38.86 1267.13 38.916C1267.07 38.972 1267 39 1266.91 39H1265.81Z" fill="white"/>
<path d="M1079.68 39C1079.6 39 1079.53 38.972 1079.47 38.916C1079.42 38.86 1079.39 38.792 1079.39 38.712V30.9C1079.39 30.812 1079.42 30.74 1079.47 30.684C1079.53 30.628 1079.6 30.6 1079.68 30.6H1082.79C1083.75 30.6 1084.52 30.824 1085.08 31.272C1085.64 31.72 1085.92 32.372 1085.92 33.228C1085.92 33.82 1085.77 34.312 1085.47 34.704C1085.19 35.096 1084.8 35.38 1084.31 35.556L1086.06 38.616C1086.09 38.664 1086.1 38.708 1086.1 38.748C1086.1 38.82 1086.07 38.88 1086.01 38.928C1085.97 38.976 1085.91 39 1085.85 39H1084.75C1084.62 39 1084.51 38.964 1084.44 38.892C1084.37 38.82 1084.31 38.748 1084.27 38.676L1082.73 35.832H1081.06V38.712C1081.06 38.792 1081.03 38.86 1080.97 38.916C1080.93 38.972 1080.86 39 1080.77 39H1079.68ZM1081.06 34.476H1082.75C1083.24 34.476 1083.6 34.368 1083.84 34.152C1084.08 33.928 1084.2 33.616 1084.2 33.216C1084.2 32.816 1084.08 32.504 1083.84 32.28C1083.61 32.048 1083.25 31.932 1082.75 31.932H1081.06V34.476ZM1088.35 39C1088.28 39 1088.22 38.976 1088.17 38.928C1088.12 38.88 1088.1 38.82 1088.1 38.748C1088.1 38.716 1088.1 38.68 1088.12 38.64L1091.01 30.9C1091.04 30.82 1091.08 30.752 1091.14 30.696C1091.22 30.632 1091.31 30.6 1091.43 30.6H1092.74C1092.86 30.6 1092.95 30.632 1093.02 30.696C1093.08 30.752 1093.13 30.82 1093.16 30.9L1096.05 38.64C1096.06 38.68 1096.06 38.716 1096.06 38.748C1096.06 38.82 1096.04 38.88 1095.99 38.928C1095.94 38.976 1095.89 39 1095.82 39H1094.78C1094.67 39 1094.58 38.976 1094.53 38.928C1094.48 38.872 1094.45 38.82 1094.43 38.772L1093.87 37.308H1090.3L1089.74 38.772C1089.72 38.82 1089.69 38.872 1089.63 38.928C1089.58 38.976 1089.5 39 1089.39 39H1088.35ZM1090.72 35.928H1093.45L1092.08 32.22L1090.72 35.928ZM1099.84 39C1099.76 39 1099.69 38.972 1099.64 38.916C1099.58 38.86 1099.55 38.792 1099.55 38.712V32.076H1097.33C1097.25 32.076 1097.19 32.048 1097.13 31.992C1097.07 31.936 1097.05 31.868 1097.05 31.788V30.9C1097.05 30.812 1097.07 30.74 1097.13 30.684C1097.19 30.628 1097.25 30.6 1097.33 30.6H1103.45C1103.54 30.6 1103.61 30.628 1103.67 30.684C1103.73 30.74 1103.75 30.812 1103.75 30.9V31.788C1103.75 31.868 1103.73 31.936 1103.67 31.992C1103.61 32.048 1103.54 32.076 1103.45 32.076H1101.25V38.712C1101.25 38.792 1101.22 38.86 1101.16 38.916C1101.11 38.972 1101.03 39 1100.95 39H1099.84ZM1106.66 39C1106.58 39 1106.51 38.972 1106.46 38.916C1106.4 38.86 1106.37 38.792 1106.37 38.712V30.9C1106.37 30.812 1106.4 30.74 1106.46 30.684C1106.51 30.628 1106.58 30.6 1106.66 30.6H1111.94C1112.03 30.6 1112.1 30.628 1112.16 30.684C1112.21 30.74 1112.24 30.812 1112.24 30.9V31.692C1112.24 31.772 1112.21 31.84 1112.16 31.896C1112.1 31.952 1112.03 31.98 1111.94 31.98H1107.99V34.104H1111.68C1111.76 34.104 1111.84 34.132 1111.89 34.188C1111.95 34.236 1111.98 34.304 1111.98 34.392V35.136C1111.98 35.224 1111.95 35.296 1111.89 35.352C1111.84 35.4 1111.76 35.424 1111.68 35.424H1107.99V37.62H1112.04C1112.12 37.62 1112.2 37.648 1112.25 37.704C1112.31 37.76 1112.34 37.832 1112.34 37.92V38.712C1112.34 38.792 1112.31 38.86 1112.25 38.916C1112.2 38.972 1112.12 39 1112.04 39H1106.66ZM1118.15 39.12C1117.41 39.12 1116.78 39.012 1116.28 38.796C1115.78 38.572 1115.4 38.284 1115.14 37.932C1114.88 37.572 1114.75 37.196 1114.73 36.804C1114.73 36.732 1114.76 36.672 1114.8 36.624C1114.85 36.576 1114.91 36.552 1114.98 36.552H1116.05C1116.16 36.552 1116.23 36.576 1116.28 36.624C1116.34 36.664 1116.38 36.716 1116.42 36.78C1116.47 36.932 1116.56 37.084 1116.7 37.236C1116.84 37.38 1117.02 37.5 1117.25 37.596C1117.49 37.692 1117.79 37.74 1118.15 37.74C1118.73 37.74 1119.16 37.644 1119.44 37.452C1119.72 37.26 1119.87 37 1119.87 36.672C1119.87 36.44 1119.79 36.256 1119.64 36.12C1119.49 35.976 1119.25 35.848 1118.93 35.736C1118.62 35.616 1118.2 35.492 1117.68 35.364C1117.08 35.22 1116.58 35.048 1116.17 34.848C1115.77 34.64 1115.47 34.38 1115.26 34.068C1115.06 33.756 1114.96 33.36 1114.96 32.88C1114.96 32.416 1115.08 32.004 1115.33 31.644C1115.59 31.284 1115.95 31 1116.41 30.792C1116.88 30.584 1117.44 30.48 1118.09 30.48C1118.61 30.48 1119.07 30.552 1119.47 30.696C1119.87 30.832 1120.2 31.016 1120.47 31.248C1120.73 31.472 1120.93 31.716 1121.07 31.98C1121.21 32.236 1121.29 32.488 1121.3 32.736C1121.3 32.8 1121.27 32.86 1121.22 32.916C1121.18 32.964 1121.12 32.988 1121.04 32.988H1119.93C1119.86 32.988 1119.8 32.972 1119.74 32.94C1119.67 32.908 1119.62 32.848 1119.58 32.76C1119.53 32.512 1119.38 32.3 1119.11 32.124C1118.85 31.948 1118.51 31.86 1118.09 31.86C1117.66 31.86 1117.31 31.94 1117.05 32.1C1116.78 32.26 1116.65 32.508 1116.65 32.844C1116.65 33.068 1116.72 33.256 1116.84 33.408C1116.98 33.552 1117.19 33.68 1117.48 33.792C1117.78 33.904 1118.16 34.024 1118.64 34.152C1119.32 34.304 1119.88 34.48 1120.31 34.68C1120.74 34.88 1121.06 35.136 1121.26 35.448C1121.46 35.752 1121.56 36.14 1121.56 36.612C1121.56 37.14 1121.42 37.592 1121.13 37.968C1120.85 38.336 1120.45 38.62 1119.94 38.82C1119.43 39.02 1118.83 39.12 1118.15 39.12Z" fill="white"/>
<path d="M1020.92 39C1020.83 39 1020.76 38.972 1020.7 38.916C1020.65 38.86 1020.62 38.792 1020.62 38.712V30.9C1020.62 30.812 1020.65 30.74 1020.7 30.684C1020.76 30.628 1020.83 30.6 1020.92 30.6H1021.87C1021.98 30.6 1022.06 30.632 1022.12 30.696C1022.17 30.752 1022.21 30.796 1022.23 30.828L1024.54 35.148L1026.88 30.828C1026.9 30.796 1026.93 30.752 1026.99 30.696C1027.05 30.632 1027.13 30.6 1027.24 30.6H1028.18C1028.27 30.6 1028.34 30.628 1028.39 30.684C1028.45 30.74 1028.48 30.812 1028.48 30.9V38.712C1028.48 38.792 1028.45 38.86 1028.39 38.916C1028.34 38.972 1028.27 39 1028.18 39H1027.17C1027.08 39 1027.01 38.972 1026.95 38.916C1026.91 38.86 1026.88 38.792 1026.88 38.712V33.516L1025.2 36.72C1025.16 36.792 1025.11 36.856 1025.05 36.912C1024.98 36.96 1024.9 36.984 1024.79 36.984H1024.3C1024.19 36.984 1024.1 36.96 1024.04 36.912C1023.98 36.856 1023.93 36.792 1023.89 36.72L1022.21 33.516V38.712C1022.21 38.792 1022.19 38.86 1022.13 38.916C1022.07 38.972 1022.01 39 1021.93 39H1020.92ZM1031.23 39C1031.17 39 1031.11 38.976 1031.05 38.928C1031 38.88 1030.98 38.82 1030.98 38.748C1030.98 38.716 1030.99 38.68 1031 38.64L1033.89 30.9C1033.92 30.82 1033.96 30.752 1034.03 30.696C1034.1 30.632 1034.19 30.6 1034.31 30.6H1035.62C1035.74 30.6 1035.83 30.632 1035.9 30.696C1035.96 30.752 1036.01 30.82 1036.04 30.9L1038.93 38.64C1038.94 38.68 1038.95 38.716 1038.95 38.748C1038.95 38.82 1038.92 38.88 1038.87 38.928C1038.83 38.976 1038.77 39 1038.71 39H1037.66C1037.55 39 1037.47 38.976 1037.41 38.928C1037.36 38.872 1037.33 38.82 1037.31 38.772L1036.75 37.308H1033.19L1032.62 38.772C1032.61 38.82 1032.57 38.872 1032.51 38.928C1032.47 38.976 1032.39 39 1032.27 39H1031.23ZM1033.61 35.928H1036.33L1034.96 32.22L1033.61 35.928ZM1041.75 39C1041.67 39 1041.61 38.972 1041.55 38.916C1041.49 38.86 1041.47 38.792 1041.47 38.712V30.888C1041.47 30.808 1041.49 30.74 1041.55 30.684C1041.61 30.628 1041.67 30.6 1041.75 30.6H1042.88C1042.97 30.6 1043.04 30.628 1043.09 30.684C1043.14 30.74 1043.17 30.808 1043.17 30.888V38.712C1043.17 38.792 1043.14 38.86 1043.09 38.916C1043.04 38.972 1042.97 39 1042.88 39H1041.75ZM1046.74 39C1046.66 39 1046.59 38.972 1046.54 38.916C1046.48 38.86 1046.45 38.792 1046.45 38.712V30.9C1046.45 30.812 1046.48 30.74 1046.54 30.684C1046.59 30.628 1046.66 30.6 1046.74 30.6H1047.66C1047.78 30.6 1047.86 30.628 1047.9 30.684C1047.96 30.732 1048 30.768 1048.01 30.792L1051.47 36.168V30.9C1051.47 30.812 1051.49 30.74 1051.54 30.684C1051.6 30.628 1051.67 30.6 1051.76 30.6H1052.76C1052.85 30.6 1052.92 30.628 1052.98 30.684C1053.04 30.74 1053.06 30.812 1053.06 30.9V38.7C1053.06 38.788 1053.04 38.86 1052.98 38.916C1052.92 38.972 1052.86 39 1052.78 39H1051.84C1051.73 39 1051.65 38.972 1051.6 38.916C1051.55 38.86 1051.52 38.824 1051.49 38.808L1048.05 33.552V38.712C1048.05 38.792 1048.02 38.86 1047.96 38.916C1047.91 38.972 1047.84 39 1047.75 39H1046.74Z" fill="white"/>
</svg>
